<svg
      viewBox="0 0 209 51"
      fill="none"
      xmlns="http://www.w3.org/2000/svg"
      class=".red h-auto w-[300px] motion-safe:animate-fade-up-md sm:w-[350px] md:w-[25rem]"
    >
      <path
        fill-rule="evenodd"
        clip-rule="evenodd"
        d="M38.8945 28.8544H33.9985C31.6961 28.8544 29.9186 28.2358 28.666 26.9967C27.4134 25.7594 26.7863 23.9754 26.7863 21.6462V7.63125C26.7863 5.30389 27.4117 3.51982 28.666 2.28078C29.9186 1.04349 31.6961 0.423096 33.9985 0.423096H38.8945C41.1952 0.423096 42.9745 1.04174 44.227 2.28078C45.4796 3.51806 46.1068 5.30214 46.1068 7.63125V21.6462C46.1068 23.9754 45.4796 25.7577 44.227 26.9967C42.9745 28.234 41.1969 28.8544 38.8945 28.8544ZM34.8734 23.9911H37.9763C38.9083 23.9911 39.5719 23.7913 39.9652 23.3935C40.3584 22.9957 40.5559 22.3262 40.5559 21.3816V7.89589C40.5559 6.95302 40.3584 6.2818 39.9652 5.88398C39.5719 5.48616 38.9083 5.28637 37.9763 5.28637H34.8734C33.9414 5.28637 33.2848 5.48616 32.9071 5.88398C32.5277 6.2818 32.3388 6.95302 32.3388 7.89589V21.3816C32.3388 22.3262 32.5277 22.9957 32.9071 23.3935C33.2848 23.7913 33.9414 23.9911 34.8734 23.9911ZM5.76451 28.8544H2.0501C1.43854 28.8544 1.13189 28.5442 1.13189 27.9255V1.35366C1.13189 0.73502 1.43854 0.424823 2.0501 0.424823H12.4518C14.7248 0.424823 16.5006 1.05924 17.7844 2.32632C19.0664 3.5934 19.7074 5.37747 19.7074 7.67679V11.1258C19.7074 14.4573 18.4098 16.6673 15.818 17.7573V17.9344L20.494 27.7941C20.7556 28.5021 20.5078 28.8561 19.7507 28.8561H16.2113C15.6864 28.8561 15.3069 28.7965 15.0748 28.6791C14.8409 28.5617 14.6521 28.3111 14.5065 27.9273L10.1355 18.3777H7.20766C6.8577 18.3777 6.68272 18.5407 6.68272 18.8649V27.929C6.68272 28.5477 6.37607 28.8579 5.76451 28.8579V28.8544ZM7.16261 13.8667H11.4453C12.3773 13.8667 13.0634 13.6669 13.5 13.2691C13.9366 12.8713 14.1549 12.2299 14.1549 11.3466V7.89761C14.1549 6.98454 13.9366 6.32033 13.5 5.90849C13.0634 5.49665 12.3773 5.28985 11.4453 5.28985H7.16261C6.84211 5.28985 6.68272 5.45283 6.68272 5.7753V13.3795C6.68272 13.7037 6.84211 13.865 7.16261 13.865V13.8667ZM53.5356 1.35366V27.9255C53.5356 28.5442 53.8423 28.8544 54.4538 28.8544H65.3805C67.6535 28.8544 69.4172 28.234 70.6697 26.9967C71.9223 25.7594 72.5495 23.9911 72.5495 21.6918V19.0384C72.5495 17.5944 72.2012 16.4815 71.5013 15.6999C70.8014 14.9183 69.8676 14.4398 68.7034 14.2628C71.0041 13.5267 72.1562 11.9057 72.1562 9.39953V7.58741C72.1562 5.28985 71.529 3.51979 70.2765 2.2825C69.0221 1.04347 67.2446 0.424823 64.9439 0.424823H54.4538C53.8423 0.424823 53.5356 0.73502 53.5356 1.35366ZM64.024 11.9652H59.5663L59.5646 11.9617C59.2441 11.9617 59.0847 11.8005 59.0847 11.4763V5.59654C59.0847 5.27232 59.2441 5.10934 59.5646 5.10934H64.0673C64.9994 5.10934 65.6768 5.30913 66.0995 5.70695C66.5222 6.10477 66.7336 6.76197 66.7336 7.67504V9.39953C66.7336 10.3144 66.5153 10.9698 66.0787 11.3676C65.6404 11.7654 64.9561 11.9652 64.024 11.9652ZM64.4623 24.1681H59.5663L59.5681 24.1664C59.2476 24.1664 59.0882 24.0051 59.0882 23.6809V17.0038C59.0882 16.6813 59.2476 16.5183 59.5681 16.5183H64.3757C65.3649 16.5183 66.0804 16.7111 66.517 17.0931C66.9536 17.4769 67.1719 18.1254 67.1719 19.0384V21.6024C67.1719 22.5172 66.9605 23.1727 66.5378 23.5705C66.1151 23.9683 65.4238 24.1681 64.4623 24.1681ZM85.7474 1.35366V27.9255C85.7474 28.5442 85.4408 28.8544 84.8292 28.8544H81.1148C80.5032 28.8544 80.1966 28.5442 80.1966 27.9255V1.35366C80.1966 0.73502 80.5032 0.424823 81.1148 0.424823H84.8292C85.4408 0.424823 85.7474 0.73502 85.7474 1.35366ZM94.7511 28.8544H109.131C109.714 28.8544 110.005 28.5442 110.005 27.9255V24.9182C110.005 24.2698 109.713 23.9455 109.131 23.9455H99.9086C99.5587 23.9455 99.3837 23.7843 99.3837 23.4601V1.35366C99.3837 0.73502 99.077 0.424823 98.4655 0.424823H94.7511C94.1395 0.424823 93.8328 0.73502 93.8328 1.35366V27.9255C93.8328 28.5442 94.1395 28.8544 94.7511 28.8544ZM130.941 28.8544H116.561C115.949 28.8544 115.643 28.5442 115.643 27.9255V1.35366C115.643 0.73502 115.949 0.424823 116.561 0.424823H120.275C120.887 0.424823 121.194 0.73502 121.194 1.35366V23.4601C121.194 23.7843 121.369 23.9455 121.719 23.9455H130.941C131.523 23.9455 131.815 24.2698 131.815 24.9182V27.9255C131.815 28.5442 131.524 28.8544 130.941 28.8544ZM136.185 28.8544H140.381H140.383C140.674 28.8544 140.885 28.7878 141.017 28.6546C141.148 28.5231 141.242 28.2795 141.301 27.9255L142.524 23.0623H151.046L152.269 27.9255C152.326 28.2795 152.414 28.5214 152.531 28.6546C152.647 28.7878 152.865 28.8544 153.185 28.8544H157.381C157.906 28.8544 158.081 28.5442 157.906 27.9255L151.001 1.35366C150.854 0.73502 150.417 0.424823 149.689 0.424823H143.877C143.206 0.424823 142.77 0.73502 142.565 1.35366L135.66 27.9255C135.485 28.5442 135.66 28.8544 136.185 28.8544ZM143.57 18.553L146.718 5.7753H146.893L150.039 18.553H143.57ZM168.615 28.8544H164.9C164.289 28.8544 163.982 28.5442 163.982 27.9255V1.35366C163.982 0.73502 164.289 0.424823 164.9 0.424823H175.302C177.575 0.424823 179.351 1.05924 180.635 2.32632C181.917 3.5934 182.558 5.37747 182.558 7.67679V11.1258C182.558 14.4573 181.26 16.6673 178.668 17.7573V17.9344L183.344 27.7941C183.606 28.5021 183.358 28.8561 182.601 28.8561H179.062C178.537 28.8561 178.157 28.7965 177.925 28.6791C177.691 28.5617 177.502 28.3111 177.357 27.9273L172.986 18.3777H170.058C169.708 18.3777 169.533 18.5407 169.533 18.8649V27.929C169.533 28.5477 169.226 28.8579 168.615 28.8579V28.8544ZM170.013 13.8667H174.296C175.228 13.8667 175.914 13.6669 176.35 13.2691C176.787 12.8713 177.005 12.2299 177.005 11.3466V7.89761C177.005 6.98454 176.787 6.32033 176.35 5.90849C175.914 5.49665 175.228 5.28985 174.296 5.28985H170.013C169.692 5.28985 169.533 5.45283 169.533 5.7753V13.3795C169.533 13.7037 169.692 13.865 170.013 13.865V13.8667ZM190.075 1.35366V27.9238C190.075 28.5424 190.382 28.8526 190.993 28.8526H201.788C204.061 28.8526 205.83 28.227 207.098 26.9739C208.365 25.7208 208.999 23.9455 208.999 21.6462V7.63123C208.999 5.33191 208.366 3.55659 207.098 2.30354C205.832 1.05048 204.061 0.424823 201.788 0.424823H190.993C190.382 0.424823 190.075 0.73502 190.075 1.35366ZM200.87 23.9911H196.106V23.9876C195.785 23.9876 195.626 23.8264 195.626 23.5021V5.77179C195.626 5.44933 195.785 5.28634 196.106 5.28634H200.87C201.802 5.28634 202.465 5.48613 202.859 5.88395C203.252 6.28178 203.45 6.953 203.45 7.89586V21.3816C203.45 22.3262 203.252 22.9957 202.859 23.3935C202.465 23.7913 201.802 23.9911 200.87 23.9911ZM9.27798 38.3619V39.4467C9.27798 39.5606 9.22254 39.6167 9.10993 39.6167H5.891C5.84596 39.6167 5.82343 39.6395 5.82343 39.685V49.8935C5.82343 50.0057 5.76799 50.0635 5.65538 50.0635H4.38202C4.27115 50.0635 4.21397 50.0074 4.21397 49.8935V39.685C4.21397 39.6395 4.19145 39.6167 4.14641 39.6167H1.07821C0.967328 39.6167 0.910156 39.5606 0.910156 39.4467V38.3619C0.910156 38.2497 0.965595 38.1919 1.07821 38.1919H9.1082C9.21908 38.1919 9.27625 38.2479 9.27625 38.3619H9.27798ZM21.3325 39.601H27.2836V39.608C27.3962 39.608 27.4516 39.5519 27.4516 39.438V38.3689C27.4516 38.255 27.3944 38.1989 27.2836 38.1989H19.8235C19.7109 38.1989 19.6555 38.2568 19.6555 38.3689V49.9006C19.6555 50.0145 19.7109 50.0706 19.8235 50.0706H27.2836C27.3962 50.0706 27.4516 50.0127 27.4516 49.9006V48.8315C27.4516 48.7176 27.3944 48.6615 27.2836 48.6615H21.3325C21.2875 48.6615 21.265 48.6388 21.265 48.5932V44.8621C21.265 44.8165 21.2875 44.7937 21.3325 44.7937H25.4229C25.5355 44.7937 25.5909 44.7359 25.5909 44.6237V43.5547C25.5909 43.4408 25.5338 43.3847 25.4229 43.3847H21.3325C21.2875 43.3847 21.265 43.3619 21.265 43.3163V39.6693C21.265 39.6237 21.2875 39.601 21.3325 39.601ZM39.6984 49.7341C39.0782 49.4116 38.5965 48.9542 38.257 48.3601C37.9157 47.766 37.7459 47.086 37.7459 46.3166V41.9248C37.7459 41.1554 37.9157 40.4807 38.257 39.8989C38.5983 39.317 39.0782 38.8649 39.6984 38.5424C40.3186 38.22 41.0307 38.0587 41.8363 38.0587C42.6418 38.0587 43.3504 38.2147 43.9655 38.5249C44.5805 38.8368 45.0586 39.2732 45.3982 39.8393C45.7395 40.4054 45.9093 41.0608 45.9093 41.8074V41.8249C45.9093 41.881 45.892 41.9266 45.859 41.9599C45.8261 41.9932 45.7863 42.0107 45.7412 42.0107L44.4679 42.079C44.3553 42.079 44.2998 42.0282 44.2998 41.9266V41.8757C44.2998 41.1519 44.0763 40.5701 43.6294 40.1285C43.1824 39.6868 42.5847 39.4678 41.8363 39.4678C41.0878 39.4678 40.4867 39.6886 40.0345 40.1285C39.5823 40.5683 39.3554 41.1519 39.3554 41.8757V46.3867C39.3554 47.1105 39.5823 47.6924 40.0345 48.134C40.4867 48.5757 41.0878 48.7947 41.8363 48.7947C42.5847 48.7947 43.1824 48.5739 43.6294 48.134C44.0763 47.6924 44.2998 47.1105 44.2998 46.3867V46.3535C44.2998 46.2518 44.3553 46.201 44.4679 46.201L45.7412 46.2693C45.8521 46.2693 45.9093 46.3254 45.9093 46.4393C45.9093 47.1859 45.7395 47.8448 45.3982 48.4144C45.0569 48.9857 44.5787 49.4291 43.9655 49.7463C43.3504 50.0636 42.6418 50.2213 41.8363 50.2213C41.0307 50.2213 40.3186 50.0601 39.6984 49.7376V49.7341ZM64.5853 38.1919H63.3119C63.1993 38.1919 63.1439 38.2497 63.1439 38.3619V43.3145C63.1439 43.3601 63.1214 43.3829 63.0763 43.3829H58.2982C58.2531 43.3829 58.2306 43.3601 58.2306 43.3145V38.3619C58.2306 38.2479 58.1734 38.1919 58.0626 38.1919H56.7892C56.6766 38.1919 56.6212 38.2497 56.6212 38.3619V49.8935C56.6212 50.0074 56.6766 50.0635 56.7892 50.0635H58.0626C58.1752 50.0635 58.2306 50.0057 58.2306 49.8935V44.8567C58.2306 44.8112 58.2531 44.7884 58.2982 44.7884H63.0763C63.1214 44.7884 63.1439 44.8112 63.1439 44.8567V49.8935C63.1439 50.0074 63.1993 50.0635 63.3119 50.0635H64.5853C64.6979 50.0635 64.7534 50.0057 64.7534 49.8935V38.3619C64.7534 38.2479 64.6962 38.1919 64.5853 38.1919ZM82.8923 38.1919H84.1657C84.2766 38.1919 84.3337 38.2479 84.3337 38.3619V49.8935C84.3337 50.0057 84.2783 50.0635 84.1657 50.0635H82.9408C82.8629 50.0635 82.7953 50.0232 82.7399 49.9443L77.4922 41.2781C77.4818 41.2448 77.4645 41.2307 77.442 41.236C77.4194 41.2413 77.409 41.2623 77.409 41.2956L77.4264 49.8935C77.4264 50.0057 77.3709 50.0635 77.2583 50.0635H75.985C75.8724 50.0635 75.8169 50.0074 75.8169 49.8935V38.3619C75.8169 38.2497 75.8724 38.1919 75.985 38.1919H77.2254C77.3034 38.1919 77.3709 38.2322 77.4264 38.311L82.6567 46.9773C82.6671 47.0106 82.6844 47.0264 82.7069 47.0194C82.7295 47.0141 82.7399 46.9931 82.7399 46.9598L82.7225 38.3619C82.7225 38.2497 82.778 38.1919 82.8906 38.1919H82.8923ZM95.6831 48.2742C96.0296 48.8911 96.5164 49.3678 97.1418 49.7078C97.7673 50.0461 98.4776 50.216 99.304 50.216C100.13 50.216 100.858 50.0461 101.483 49.7078C102.109 49.3678 102.596 48.8911 102.942 48.2742C103.289 47.6591 103.462 46.9493 103.462 46.1467V42.1106C103.462 41.3079 103.289 40.5999 102.942 39.99C102.596 39.3784 102.109 38.9052 101.483 38.5652C100.858 38.227 100.12 38.057 99.304 38.057C98.488 38.057 97.7673 38.227 97.1418 38.5652C96.5164 38.9052 96.0296 39.3802 95.6831 39.99C95.3366 40.6017 95.1634 41.3079 95.1634 42.1106V46.1467C95.1634 46.9493 95.3366 47.6574 95.6831 48.2742ZM101.852 46.215C101.852 46.9949 101.619 47.6223 101.149 48.0972C100.681 48.5722 100.066 48.8088 99.3057 48.8088C98.5451 48.8088 97.9336 48.5722 97.4693 48.0972C97.005 47.6223 96.7728 46.9949 96.7728 46.215V42.0948C96.7728 41.3027 97.005 40.6665 97.4693 40.1863C97.9336 39.7061 98.5469 39.466 99.3057 39.466C100.065 39.466 100.68 39.7061 101.149 40.1863C101.619 40.6683 101.852 41.3044 101.852 42.0948V46.215ZM114.291 49.8953V38.3637C114.291 38.2515 114.347 38.1937 114.46 38.1937H115.733C115.844 38.1937 115.901 38.2498 115.901 38.3637V48.5897C115.901 48.6352 115.923 48.658 115.969 48.658H121.753C121.864 48.658 121.921 48.7141 121.921 48.828V49.8971C121.921 50.0092 121.866 50.0671 121.753 50.0671H114.461C114.349 50.0671 114.293 50.011 114.293 49.8971L114.291 49.8953ZM132.347 48.2742C132.694 48.8911 133.181 49.3678 133.806 49.7078C134.431 50.0461 135.142 50.216 135.968 50.216C136.795 50.216 137.522 50.0461 138.148 49.7078C138.773 49.3678 139.26 48.8911 139.606 48.2742C139.953 47.6591 140.126 46.9493 140.126 46.1467V42.1106C140.126 41.3079 139.953 40.5999 139.606 39.99C139.26 39.3784 138.773 38.9052 138.148 38.5652C137.522 38.227 136.784 38.057 135.968 38.057C135.152 38.057 134.431 38.227 133.806 38.5652C133.181 38.9052 132.694 39.3802 132.347 39.99C132.001 40.6017 131.828 41.3079 131.828 42.1106V46.1467C131.828 46.9493 132.001 47.6574 132.347 48.2742ZM138.517 46.215C138.517 46.9949 138.283 47.6223 137.813 48.0972C137.345 48.5722 136.73 48.8088 135.97 48.8088C135.209 48.8088 134.598 48.5722 134.133 48.0972C133.669 47.6223 133.437 46.9949 133.437 46.215V42.0948C133.437 41.3027 133.669 40.6665 134.133 40.1863C134.598 39.7061 135.211 39.466 135.97 39.466C136.729 39.466 137.344 39.7061 137.813 40.1863C138.283 40.6683 138.517 41.3044 138.517 42.0948V46.215ZM152.591 49.7166C151.971 49.3941 151.489 48.9367 151.15 48.3426C150.808 47.7485 150.639 47.0685 150.639 46.2991V41.9581C150.639 41.1782 150.808 40.4948 151.15 39.9059C151.491 39.3188 151.971 38.8632 152.591 38.5407C153.211 38.2182 153.923 38.057 154.729 38.057C155.535 38.057 156.243 38.2147 156.858 38.5319C157.473 38.8491 157.951 39.2873 158.291 39.8463C158.632 40.4054 158.802 41.0363 158.802 41.7373V41.9231C158.802 42.037 158.747 42.0931 158.634 42.0931H157.361C157.248 42.0931 157.193 42.037 157.193 41.9231V41.7706C157.193 41.0924 156.966 40.5403 156.514 40.118C156.061 39.6939 155.465 39.4818 154.727 39.4818C153.989 39.4818 153.378 39.7026 152.926 40.1425C152.473 40.5824 152.246 41.1712 152.246 41.9055V46.3482C152.246 47.0825 152.48 47.6714 152.95 48.1113C153.419 48.5511 154.034 48.772 154.793 48.772C155.552 48.772 156.115 48.5774 156.545 48.1866C156.974 47.7958 157.191 47.263 157.191 46.5831V45.2774C157.191 45.2318 157.168 45.2091 157.123 45.2091H154.861C154.748 45.2091 154.693 45.153 154.693 45.0391V43.9876C154.693 43.8754 154.748 43.8176 154.861 43.8176H158.632C158.743 43.8176 158.8 43.8736 158.8 43.9876V46.1414C158.8 47.4418 158.435 48.4425 157.702 49.1435C156.969 49.8445 155.978 50.195 154.726 50.195C153.922 50.195 153.208 50.0338 152.588 49.7113L152.591 49.7166ZM169.616 38.3637V49.8953C169.616 50.0092 169.672 50.0653 169.784 50.0653H171.058C171.17 50.0653 171.226 50.0075 171.226 49.8953V38.3637C171.226 38.2498 171.168 38.1937 171.058 38.1937H169.784C169.672 38.1937 169.616 38.2515 169.616 38.3637ZM189.985 39.601H184.034C183.989 39.601 183.966 39.6237 183.966 39.6693V43.3163C183.966 43.3619 183.989 43.3847 184.034 43.3847H188.124C188.235 43.3847 188.292 43.4408 188.292 43.5547V44.6237C188.292 44.7359 188.237 44.7937 188.124 44.7937H184.034C183.989 44.7937 183.966 44.8165 183.966 44.8621V48.5932C183.966 48.6388 183.989 48.6615 184.034 48.6615H189.985C190.096 48.6615 190.153 48.7176 190.153 48.8315V49.9006C190.153 50.0127 190.097 50.0706 189.985 50.0706H182.525C182.412 50.0706 182.357 50.0145 182.357 49.9006V38.3689C182.357 38.2568 182.412 38.1989 182.525 38.1989H189.985C190.096 38.1989 190.153 38.255 190.153 38.3689V39.438C190.153 39.5519 190.097 39.608 189.985 39.608V39.601ZM200.688 48.6387C201.029 49.1364 201.514 49.5202 202.147 49.7919L202.145 49.7884C202.777 50.06 203.522 50.195 204.383 50.195C205.646 50.195 206.639 49.904 207.36 49.3222C208.08 48.7404 208.441 47.9517 208.441 46.9563C208.441 46.3114 208.278 45.7716 207.954 45.3369C207.63 44.9023 207.223 44.5518 206.731 44.2854C206.239 44.0208 205.596 43.7299 204.803 43.4127C204.032 43.12 203.458 42.8781 203.084 42.6924C202.71 42.5049 202.427 42.2928 202.237 42.0562C202.048 41.8179 201.953 41.5129 201.953 41.1396C201.953 40.5981 202.143 40.1828 202.523 39.8936C202.902 39.6044 203.439 39.4607 204.132 39.4607C204.948 39.4607 205.587 39.6552 206.052 40.0461C206.516 40.4369 206.748 40.9258 206.748 41.5129V41.767C206.748 41.881 206.805 41.937 206.916 41.937H208.174C208.287 41.937 208.342 41.881 208.342 41.767V41.4288C208.342 40.7628 208.172 40.174 207.831 39.6658C207.49 39.1575 207.006 38.7614 206.381 38.4793C205.755 38.1971 205.028 38.0552 204.201 38.0552C203.028 38.0552 202.098 38.3321 201.41 38.8859C200.723 39.4397 200.38 40.202 200.38 41.1747C200.38 41.8179 200.535 42.3524 200.849 42.7765C201.161 43.2006 201.556 43.5441 202.031 43.8035C202.505 44.0629 203.151 44.352 203.967 44.6675C204.706 44.9619 205.267 45.2143 205.653 45.4228C206.038 45.6314 206.332 45.8609 206.533 46.1098C206.734 46.3587 206.835 46.6584 206.835 47.0089C206.835 47.5399 206.639 47.9692 206.247 48.297C205.856 48.6264 205.275 48.7894 204.505 48.7894C203.643 48.7894 202.968 48.6037 202.476 48.2304C201.984 47.8571 201.738 47.3821 201.738 46.8056V46.399C201.738 46.2851 201.681 46.229 201.57 46.229H200.345C200.232 46.229 200.177 46.2868 200.177 46.399V46.8914C200.177 47.5591 200.347 48.141 200.688 48.6387Z"
        fill="white"></path>
    </svg>
