<svg width="64" height="64" viewBox="0 0 64 64" fill="none" xmlns="http://www.w3.org/2000/svg">
<rect width="64" height="64" fill="black"/>
<path fill-rule="evenodd" clip-rule="evenodd" d="M31.737 15.6973L20.8832 15.6973L15.4821 15.6973L15.4416 15.6973L11.3198 31.9409H7.51471L6.41003 35.7311H10.3581L7.18436 48.2388H12.7072L15.8497 35.7311L26.6558 35.7312L23.4821 48.2388H29.0049L32.1475 35.7312L29.7474 35.7312L30.7107 31.941L33.0997 31.941L36.2287 19.4874L43.5016 19.4875L36.2062 48.2388H41.729L48.9528 19.4875H56.473L57.4317 15.6973H49.905H44.4634H37.17L36.2062 19.4875L30.7783 19.4875L31.737 15.6973ZM30.7776 19.4874L27.6176 31.941L16.802 31.9409L19.9309 19.4875L30.7776 19.4874Z" fill="#C3C1C0"/>
</svg>
