<svg width="58" height="58" viewBox="0 0 58 58" fill="none" xmlns="http://www.w3.org/2000/svg">
<g clip-path="url(#clip0_1_2)">
<rect width="58" height="58" fill="black"/>
<path d="M-2 1.94531V56.0547C-2 57.129 -1.06892 58 0.0794699 58H57.9206C59.069 58 60 57.129 60 56.0547V1.94531C60 0.871008 59.069 0 57.9206 0H0.0794699C-1.06892 0 -2 0.871008 -2 1.94531ZM44.8948 17.3553C44.8948 19.8772 42.7085 21.9224 40.0127 21.9224H31.3333C29.623 21.9224 28.2366 23.2193 28.2366 24.8193V47.8844C28.2366 49.1813 27.1126 50.2328 25.7262 50.2328H13.2495C13.1707 50.2328 13.1052 50.1732 13.1052 50.0978V26.4895C13.1052 23.9676 15.2915 21.9224 17.9873 21.9224H25.1399C26.8503 21.9224 28.2366 20.6255 28.2366 19.0255V12.3343C28.2366 9.81242 30.4228 7.76722 33.1186 7.76722H44.7505C44.8293 7.76722 44.8948 7.8268 44.8948 7.90216V17.3571V17.3553Z" fill="#66FF66"/>
</g>
<defs>
<clipPath id="clip0_1_2">
<rect width="58" height="58" fill="white"/>
</clipPath>
</defs>
</svg>
